<?xml version="1.0" standalone="no"?>
<!DOCTYPE svg PUBLIC "-//W3C//DTD SVG 20010904//EN"
 "http://www.w3.org/TR/2001/REC-SVG-20010904/DTD/svg10.dtd">
<svg version="1.0" xmlns="http://www.w3.org/2000/svg"
 width="512.000000pt" height="512.000000pt" viewBox="0 0 512.000000 512.000000"
 preserveAspectRatio="xMidYMid meet">
<metadata>
Created by potrace 1.11, written by Peter Selinger 2001-2013
</metadata>
<g transform="translate(0.000000,512.000000) scale(0.100000,-0.100000)"
fill="#000000" stroke="none">
<path d="M2468 4660 c-5 -14 -21 -56 -35 -95 -13 -38 -37 -106 -53 -150 -16
-44 -76 -213 -134 -375 -57 -162 -120 -340 -140 -395 -19 -55 -56 -158 -81
-230 -26 -71 -62 -175 -82 -230 -19 -55 -38 -103 -41 -107 -6 -5 -126 198
-503 855 -236 412 -422 733 -430 741 -4 5 -54 -21 -115 -60 -59 -38 -112 -71
-117 -73 -5 -2 -41 -24 -81 -50 -39 -26 -105 -69 -147 -96 l-75 -48 99 -176
c54 -97 110 -196 124 -221 14 -25 40 -70 56 -100 17 -30 41 -72 54 -92 13 -21
23 -39 23 -42 0 -2 25 -48 56 -102 31 -55 66 -117 78 -139 13 -22 65 -114 116
-205 51 -91 103 -183 115 -205 13 -22 121 -213 240 -425 203 -361 216 -387
207 -415 -6 -16 -50 -140 -98 -275 -47 -135 -90 -256 -95 -270 -4 -14 -26 -77
-49 -140 -23 -63 -55 -153 -71 -200 -16 -47 -32 -92 -36 -100 -3 -8 -7 -19 -9
-25 -1 -5 -41 -118 -89 -250 -47 -132 -99 -278 -115 -325 -15 -47 -38 -109
-49 -138 -12 -29 -21 -56 -21 -60 0 -4 161 -8 357 -7 l357 0 37 140 c20 77 80
304 134 505 54 201 105 393 113 427 9 35 19 63 23 63 5 0 180 -305 327 -570
14 -25 40 -71 58 -103 19 -32 34 -62 34 -68 0 -5 3 -9 6 -9 3 0 76 46 162 102
279 180 315 204 448 290 72 47 149 97 172 112 l41 26 15 -53 c9 -28 27 -95 42
-147 14 -52 28 -102 30 -110 5 -15 -50 -53 -616 -419 -63 -40 -119 -77 -124
-82 -4 -4 4 -30 19 -58 l28 -51 31 19 c17 10 60 34 96 53 120 65 214 115 414
223 109 59 202 103 206 98 4 -4 22 -62 39 -128 17 -66 41 -152 52 -190 l21
-71 359 1 c198 0 359 2 359 5 0 3 -25 88 -56 190 -31 102 -58 196 -60 209 -3
14 -8 29 -11 34 -3 5 -11 30 -18 55 -7 26 -26 90 -42 143 l-30 95 191 102
c105 56 218 117 251 135 33 18 102 55 153 82 50 27 92 54 92 60 0 5 -23 72
-51 147 -50 133 -52 137 -74 125 -12 -7 -100 -63 -196 -125 -422 -275 -433
-282 -440 -269 -12 21 -93 307 -88 311 2 2 90 59 194 126 444 288 447 290 440
308 -4 9 -52 152 -107 317 -56 165 -104 304 -108 308 -4 4 -145 -80 -314 -189
-169 -108 -309 -194 -311 -192 -5 5 -169 547 -274 908 -17 58 -35 119 -41 135
-5 17 -72 242 -150 500 -77 259 -151 506 -164 550 -14 44 -31 101 -38 128
l-12 47 -96 0 c-52 1 -157 2 -234 3 l-138 2 -10 -25z m125 -927 c2 -16 57
-219 122 -453 64 -234 119 -436 121 -449 3 -14 7 -28 10 -33 3 -4 7 -18 9 -29
3 -12 15 -61 29 -108 22 -79 35 -130 41 -156 2 -5 10 -35 19 -66 9 -31 18 -65
21 -75 2 -11 14 -53 25 -94 26 -89 60 -221 60 -229 0 -4 -15 -15 -32 -26 -18
-10 -109 -67 -201 -127 -93 -59 -170 -108 -172 -108 -3 0 -194 328 -233 400
-7 14 -22 39 -32 55 -11 17 -23 36 -26 44 -4 7 -33 58 -64 113 l-58 99 15 52
c8 29 15 57 17 62 2 6 6 24 11 40 4 17 41 156 82 310 41 154 77 287 79 295 5
22 19 72 48 180 14 52 40 150 58 217 17 67 34 120 38 118 4 -3 10 -17 13 -32z"/>
</g>
</svg>
